<svg width="133" height="163" viewBox="0 0 133 163" fill="none" xmlns="http://www.w3.org/2000/svg">
<g opacity="0.8" filter="url(#filter0_dd_2613_76)">
<rect x="16" y="14.5" width="98.3333" height="126" rx="14" fill="white"/>
<rect x="16" y="14.5" width="98.3333" height="126" rx="14" stroke="#ECEFF2"/>
<rect x="44.166" y="34.5" width="42" height="42" rx="21" fill="#ECEFF2"/>
<path d="M69.84 57.797C69.4264 57.7596 69.5928 56.9334 69.5928 56.9334C69.6307 56.6069 69.6279 56.2954 69.5537 56.0219C69.7814 56.2881 69.7647 56.7883 69.7647 56.7883C69.7792 57.6139 70.1794 57.7462 70.1794 57.7462C69.9076 57.4821 69.9506 56.7721 69.9506 56.7721C69.9606 55.9125 69.581 55.6574 69.341 55.582C69.1897 55.3844 68.9664 55.2281 68.6505 55.1282C68.1822 54.9808 66.6086 55.1806 66.1263 55.1873C65.2895 55.1985 64.3004 55.2772 63.621 54.6799C63.3816 54.4689 63.1616 54.0402 63.0182 53.755C62.9439 53.6076 62.8948 53.4591 62.7753 53.3391C62.6598 53.2224 62.513 53.1398 62.3606 53.0807C62.125 52.9897 61.8604 52.9735 61.617 53.0433C61.5082 53.0745 61.3977 53.1309 61.3363 53.228C61.2682 53.3363 61.2062 53.4379 61.1119 53.5261C61.0108 53.6204 60.629 53.7494 60.4978 53.7851C60.4632 53.7946 60.4264 53.8047 60.3918 53.8175C60.3745 53.8108 60.3544 53.8086 60.3326 53.8119C60.2986 53.8169 60.2617 53.8309 60.231 53.8454C60.2143 53.8532 60.1975 53.8633 60.1858 53.8783C60.1534 53.9196 60.1674 53.9794 60.1813 54.0251C60.1897 54.0508 60.2009 54.0799 60.2182 54.1027C60.2277 54.1502 60.245 54.1971 60.2623 54.2339C60.4331 54.5973 61.2001 54.4678 61.5249 54.4611C61.6472 54.4583 61.7717 54.4561 61.8906 54.4846C61.8883 54.6448 61.9224 54.7983 62.0318 54.8926C62.029 54.8898 62.0262 54.8876 62.0234 54.8848C62.0285 54.887 62.0335 54.8893 62.0385 54.8915C62.5001 55.0818 62.5331 54.3065 62.6782 54.0709C62.7134 54.0134 62.7725 53.9721 62.7832 53.9012C62.7977 53.8035 62.7748 53.7025 62.7324 53.6143C62.6542 53.4519 62.5197 53.2956 62.3723 53.1895C62.3985 53.204 62.4231 53.2224 62.4465 53.2386C62.6001 53.3447 62.7418 53.506 62.8228 53.6746C62.8652 53.7628 62.8887 53.8638 62.8736 53.9615C62.863 54.0324 62.8044 54.0737 62.7686 54.1312C62.6408 54.3394 62.6001 54.9685 62.2741 54.9814C62.3394 55.3397 62.2769 55.7997 62.3176 56.0615C62.3176 56.0615 62.2847 56.9669 63.1471 57.4369C62.8507 58.1598 62.4158 58.2921 62.4158 58.2921C62.2395 58.3903 62.2936 58.5394 62.2936 58.5394H62.7614C63.0863 58.2519 63.3246 57.9734 63.4915 57.7467C63.3944 58.3089 63.0896 58.2915 63.0896 58.2915C62.9132 58.3898 62.9674 58.5388 62.9674 58.5388H63.4351C63.7857 58.2285 63.9576 57.9287 64.0402 57.6931C64.4695 57.7372 65.0048 57.7077 65.6741 57.5659C66.1475 57.4654 66.6476 57.3995 67.0535 57.3577C67.4693 58.2067 68.4255 58.0052 68.4255 58.0052C68.8755 58.1112 68.8755 58.2915 68.8755 58.2915C68.6991 58.3898 68.7532 58.5388 68.7532 58.5388H69.221C69.2746 58.3049 69.2388 58.1375 69.1786 58.0208C69.2556 58.0147 69.3019 58.0046 69.3019 58.0046C69.7518 58.1107 69.7518 58.291 69.7518 58.291C69.5755 58.3892 69.6296 58.5383 69.6296 58.5383H70.0974C70.2263 57.9789 69.8395 57.7964 69.8395 57.7964L69.84 57.797Z" fill="#808B9A"/>
<path d="M51.973 90.876C51.5157 90.876 51.1097 90.96 50.755 91.128C50.4004 91.296 50.097 91.5387 49.845 91.856C49.6024 92.1733 49.4157 92.556 49.285 93.004C49.1637 93.452 49.103 93.956 49.103 94.516C49.103 95.272 49.2057 95.9207 49.411 96.462C49.6164 96.994 49.929 97.4047 50.349 97.694C50.7784 97.9833 51.315 98.128 51.959 98.128C52.3884 98.128 52.799 98.086 53.191 98.002C53.5924 97.9087 54.0124 97.7873 54.451 97.638V99.164C54.0404 99.332 53.625 99.4533 53.205 99.528C52.7944 99.6027 52.3184 99.64 51.777 99.64C50.7504 99.64 49.901 99.43 49.229 99.01C48.557 98.5807 48.0577 97.9833 47.731 97.218C47.4044 96.4433 47.241 95.538 47.241 94.502C47.241 93.746 47.3437 93.0553 47.549 92.43C47.7637 91.8047 48.067 91.2633 48.459 90.806C48.8604 90.3487 49.355 89.994 49.943 89.742C50.531 89.49 51.2077 89.364 51.973 89.364C52.477 89.364 52.9717 89.4247 53.457 89.546C53.9517 89.658 54.4137 89.8167 54.843 90.022L54.227 91.492C53.8724 91.3333 53.5037 91.1933 53.121 91.072C52.7477 90.9413 52.365 90.876 51.973 90.876ZM58.1998 91.394C58.1998 91.6927 58.1858 91.9867 58.1578 92.276C58.1391 92.556 58.1204 92.766 58.1018 92.906H58.2138C58.3724 92.6447 58.5684 92.4347 58.8018 92.276C59.0351 92.108 59.2918 91.982 59.5718 91.898C59.8611 91.814 60.1598 91.772 60.4678 91.772C61.0371 91.772 61.5271 91.87 61.9378 92.066C62.3484 92.262 62.6611 92.5653 62.8758 92.976C63.0998 93.3773 63.2118 93.9047 63.2118 94.558V99.5H61.4478V94.908C61.4478 94.3293 61.3358 93.9 61.1118 93.62C60.8878 93.34 60.5331 93.2 60.0478 93.2C59.5811 93.2 59.2124 93.3027 58.9418 93.508C58.6711 93.704 58.4798 93.998 58.3678 94.39C58.2558 94.7727 58.1998 95.244 58.1998 95.804V99.5H56.4358V88.86H58.1998V91.394ZM67.1822 91.912V99.5H65.4182V91.912H67.1822ZM66.3002 88.986C66.5615 88.986 66.7902 89.056 66.9862 89.196C67.1822 89.3267 67.2802 89.5647 67.2802 89.91C67.2802 90.246 67.1822 90.4887 66.9862 90.638C66.7902 90.778 66.5615 90.848 66.3002 90.848C66.0295 90.848 65.7962 90.778 65.6002 90.638C65.4135 90.4887 65.3202 90.246 65.3202 89.91C65.3202 89.5647 65.4135 89.3267 65.6002 89.196C65.7962 89.056 66.0295 88.986 66.3002 88.986ZM72.5037 99.64C71.785 99.64 71.1597 99.5047 70.6277 99.234C70.105 98.954 69.699 98.5293 69.4097 97.96C69.1297 97.3813 68.9897 96.644 68.9897 95.748C68.9897 94.8147 69.1437 94.0587 69.4517 93.48C69.769 92.892 70.203 92.4627 70.7537 92.192C71.3044 91.912 71.9344 91.772 72.6437 91.772C73.1197 91.772 73.5444 91.8187 73.9177 91.912C74.291 92.0053 74.6084 92.1173 74.8697 92.248L74.3517 93.634C74.0624 93.522 73.773 93.4287 73.4837 93.354C73.1944 93.27 72.9144 93.228 72.6437 93.228C72.2237 93.228 71.8737 93.3213 71.5937 93.508C71.323 93.6947 71.1224 93.9747 70.9917 94.348C70.861 94.712 70.7957 95.174 70.7957 95.734C70.7957 96.2753 70.861 96.728 70.9917 97.092C71.1317 97.456 71.337 97.7313 71.6077 97.918C71.8784 98.0953 72.2144 98.184 72.6157 98.184C73.045 98.184 73.423 98.1327 73.7497 98.03C74.0764 97.9273 74.3844 97.7873 74.6737 97.61V99.136C74.3844 99.3133 74.0717 99.4393 73.7357 99.514C73.409 99.598 72.9984 99.64 72.5037 99.64ZM83.2274 95.692C83.2274 96.3267 83.1434 96.8867 82.9754 97.372C82.8074 97.8573 82.5647 98.2727 82.2474 98.618C81.9394 98.954 81.5567 99.2107 81.0994 99.388C80.6514 99.556 80.152 99.64 79.6014 99.64C79.0787 99.64 78.598 99.556 78.1594 99.388C77.7207 99.2107 77.338 98.954 77.0114 98.618C76.694 98.2727 76.4467 97.8573 76.2694 97.372C76.092 96.8867 76.0034 96.3267 76.0034 95.692C76.0034 94.852 76.148 94.1427 76.4374 93.564C76.7267 92.976 77.142 92.5327 77.6834 92.234C78.234 91.926 78.8827 91.772 79.6294 91.772C80.3387 91.772 80.9594 91.926 81.4914 92.234C82.0327 92.5327 82.4574 92.976 82.7654 93.564C83.0734 94.1427 83.2274 94.852 83.2274 95.692ZM77.8094 95.692C77.8094 96.224 77.87 96.6813 77.9914 97.064C78.122 97.4373 78.318 97.722 78.5794 97.918C78.85 98.114 79.1954 98.212 79.6154 98.212C80.0447 98.212 80.39 98.114 80.6514 97.918C80.922 97.722 81.118 97.4373 81.2394 97.064C81.3607 96.6813 81.4214 96.224 81.4214 95.692C81.4214 95.1507 81.356 94.698 81.2254 94.334C81.104 93.9607 80.908 93.6807 80.6374 93.494C80.376 93.298 80.0354 93.2 79.6154 93.2C78.9807 93.2 78.5187 93.4147 78.2294 93.844C77.9494 94.2733 77.8094 94.8893 77.8094 95.692Z" fill="#39434F"/>
<path d="M49.194 113.204C49.194 113.9 49.142 114.52 49.038 115.064C48.934 115.608 48.766 116.072 48.534 116.456C48.31 116.832 48.014 117.12 47.646 117.32C47.286 117.52 46.85 117.62 46.338 117.62C45.698 117.62 45.166 117.444 44.742 117.092C44.326 116.74 44.014 116.236 43.806 115.58C43.606 114.916 43.506 114.124 43.506 113.204C43.506 112.276 43.598 111.484 43.782 110.828C43.974 110.172 44.278 109.672 44.694 109.328C45.11 108.976 45.658 108.8 46.338 108.8C46.978 108.8 47.51 108.976 47.934 109.328C48.358 109.672 48.674 110.172 48.882 110.828C49.09 111.484 49.194 112.276 49.194 113.204ZM44.562 113.204C44.562 113.988 44.618 114.64 44.73 115.16C44.85 115.68 45.038 116.072 45.294 116.336C45.558 116.592 45.906 116.72 46.338 116.72C46.77 116.72 47.114 116.592 47.37 116.336C47.634 116.08 47.826 115.692 47.946 115.172C48.066 114.644 48.126 113.988 48.126 113.204C48.126 112.42 48.066 111.772 47.946 111.26C47.826 110.74 47.634 110.352 47.37 110.096C47.114 109.832 46.77 109.7 46.338 109.7C45.906 109.7 45.558 109.832 45.294 110.096C45.038 110.352 44.85 110.74 44.73 111.26C44.618 111.772 44.562 112.42 44.562 113.204ZM53.3823 114.752V113.816H56.2863V114.752H53.3823ZM64.1467 117.5H63.1147V111.512C63.1147 111.28 63.1147 111.084 63.1147 110.924C63.1227 110.764 63.1307 110.616 63.1387 110.48C63.1467 110.336 63.1547 110.188 63.1627 110.036C63.0347 110.164 62.9187 110.272 62.8147 110.36C62.7107 110.448 62.5787 110.56 62.4187 110.696L61.5067 111.44L60.9547 110.732L63.2707 108.932H64.1467V117.5ZM73.3779 115.556H72.1299V117.5H71.1099V115.556H67.0059V114.656L71.0379 108.884H72.1299V114.608H73.3779V115.556ZM71.1099 111.908C71.1099 111.7 71.1099 111.512 71.1099 111.344C71.1179 111.168 71.1259 111.004 71.1339 110.852C71.1419 110.7 71.1459 110.556 71.1459 110.42C71.1539 110.276 71.1619 110.14 71.1699 110.012H71.1219C71.0579 110.164 70.9779 110.328 70.8819 110.504C70.7859 110.68 70.6939 110.828 70.6059 110.948L68.0379 114.608H71.1099V111.908ZM75.6851 113.144C75.6851 113.272 75.6771 113.44 75.6611 113.648C75.6531 113.856 75.6451 114.036 75.6371 114.188H75.6851C75.7331 114.124 75.8051 114.032 75.9011 113.912C75.9971 113.792 76.0931 113.672 76.1891 113.552C76.2931 113.424 76.3811 113.32 76.4531 113.24L78.5051 111.068H79.7411L77.1371 113.816L79.9211 117.5H78.6491L76.4171 114.5L75.6851 115.136V117.5H74.6411V108.38H75.6851V113.144ZM83.3313 110.948C83.7553 110.948 84.1353 111.028 84.4713 111.188C84.8153 111.348 85.1073 111.592 85.3473 111.92H85.4073L85.5513 111.068H86.3913V117.608C86.3913 118.216 86.2873 118.724 86.0793 119.132C85.8713 119.548 85.5553 119.86 85.1313 120.068C84.7073 120.276 84.1673 120.38 83.5113 120.38C83.0473 120.38 82.6193 120.344 82.2273 120.272C81.8433 120.208 81.4993 120.108 81.1953 119.972V119C81.4033 119.104 81.6313 119.192 81.8793 119.264C82.1273 119.344 82.3953 119.404 82.6833 119.444C82.9713 119.484 83.2673 119.504 83.5713 119.504C84.1233 119.504 84.5553 119.34 84.8673 119.012C85.1873 118.692 85.3473 118.252 85.3473 117.692V117.44C85.3473 117.344 85.3513 117.208 85.3593 117.032C85.3673 116.848 85.3753 116.72 85.3833 116.648H85.3353C85.1113 116.976 84.8313 117.22 84.4953 117.38C84.1673 117.54 83.7833 117.62 83.3433 117.62C82.5113 117.62 81.8593 117.328 81.3873 116.744C80.9233 116.16 80.6913 115.344 80.6913 114.296C80.6913 113.608 80.7953 113.016 81.0033 112.52C81.2193 112.016 81.5233 111.628 81.9153 111.356C82.3073 111.084 82.7793 110.948 83.3313 110.948ZM83.4753 111.836C83.1153 111.836 82.8073 111.932 82.5513 112.124C82.3033 112.316 82.1113 112.596 81.9753 112.964C81.8473 113.332 81.7833 113.78 81.7833 114.308C81.7833 115.1 81.9273 115.708 82.2153 116.132C82.5113 116.548 82.9393 116.756 83.4993 116.756C83.8273 116.756 84.1073 116.716 84.3393 116.636C84.5713 116.548 84.7633 116.416 84.9153 116.24C85.0673 116.056 85.1793 115.824 85.2513 115.544C85.3233 115.264 85.3593 114.932 85.3593 114.548V114.296C85.3593 113.712 85.2913 113.24 85.1553 112.88C85.0273 112.52 84.8233 112.256 84.5433 112.088C84.2633 111.92 83.9073 111.836 83.4753 111.836Z" fill="#808B9A"/>
</g>
<defs>
<filter id="filter0_dd_2613_76" x="-2.5" y="0" width="135.334" height="163" filterUnits="userSpaceOnUse" color-interpolation-filters="sRGB">
<feFlood flood-opacity="0" result="BackgroundImageFix"/>
<feColorMatrix in="SourceAlpha" type="matrix" values="0 0 0 0 0 0 0 0 0 0 0 0 0 0 0 0 0 0 127 0" result="hardAlpha"/>
<feMorphology radius="2" operator="erode" in="SourceAlpha" result="effect1_dropShadow_2613_76"/>
<feOffset dy="4"/>
<feGaussianBlur stdDeviation="10"/>
<feColorMatrix type="matrix" values="0 0 0 0 0.196078 0 0 0 0 0.196078 0 0 0 0 0.278431 0 0 0 0.02 0"/>
<feBlend mode="normal" in2="BackgroundImageFix" result="effect1_dropShadow_2613_76"/>
<feColorMatrix in="SourceAlpha" type="matrix" values="0 0 0 0 0 0 0 0 0 0 0 0 0 0 0 0 0 0 127 0" result="hardAlpha"/>
<feOffset/>
<feGaussianBlur stdDeviation="2.5"/>
<feColorMatrix type="matrix" values="0 0 0 0 0.0470588 0 0 0 0 0.101961 0 0 0 0 0.294118 0 0 0 0.05 0"/>
<feBlend mode="normal" in2="effect1_dropShadow_2613_76" result="effect2_dropShadow_2613_76"/>
<feBlend mode="normal" in="SourceGraphic" in2="effect2_dropShadow_2613_76" result="shape"/>
</filter>
</defs>
</svg>
