<?xml version="1.0" encoding="UTF-8"?>
<svg id="Layer_1" data-name="Layer 1" xmlns="http://www.w3.org/2000/svg" viewBox="0 0 498.4 498">
  <defs>
    <style>
      .cls-1 {
        fill: #1876f1;
      }

      .cls-2 {
        fill: #fefefe;
      }
    </style>
  </defs>
  <path class="cls-1" d="M287.9,495.16l-.98-.47c.16-57.77.32-115.55.49-173.34l.98-.61.34-.98h57.2l.6.98-.92-.48c3.54-23.63,7.07-47.26,10.61-70.89l1.05-.45-.34.98h-67.95l-.6-.98-.98-.34v-51.58l.98-.6-.95-.78c3.28-22.38,17.08-31.73,39.21-33.19,10.75-.05,21.49-.02,32.22.09l1.34.9-.98-.34v-60.62l.98-.6-1.25.5c-47.05-5.89-104.05-12.5-133.04,34.25-12.54,20.22-15.24,44.55-14.97,68.07l.34,39.85c-.15,1.51-.51,2.97-1.07,4.38l-.34.98h-62.09l-.59-.98.98.34v70.88l-.98.6c0-.38.1-.97.34-.98,19.15-.32,39.69-.58,58.86,0,1.94-.34,3.22-.01,3.83.98l.98.47v172.86l-.98.61C28.5,466.13-61.34,254.73,46.64,104.15c99.01-138.07,304.54-139.17,404.35-1.47,109.02,150.42,19.76,364.71-163.09,392.47Z"/>
  <path class="cls-2" d="M210.22,494.67v-173.93h-63.03v-71.82h63.03c.56-19.02-.74-38.45-.02-57.43,1.23-32.34,11.51-62.94,40.12-80.56,32.73-20.15,73.71-13.48,109.89-9.08v61.56c-21.01,1.37-50.58-5.83-64.9,14.01-3.08,4.27-6.92,13.75-6.92,18.97v52.52h68.89l-10.75,71.82h-58.14l-.49,174.42c-26.6,4.04-51.17,3.67-77.68-.49Z"/>
</svg>