<?xml version="1.0" encoding="UTF-8"?>
<svg id="Layer_1" data-name="Layer 1" xmlns="http://www.w3.org/2000/svg" viewBox="0 0 477.34 496.11">
  <defs>
    <style>
      .cls-1 {
        fill: #fb0;
      }

      .cls-2 {
        fill: #26b14c;
      }

      .cls-3 {
        fill: #ff3424;
      }

      .cls-4 {
        fill: #3284ff;
      }
    </style>
  </defs>
  <path class="cls-4" d="M477.34,248.05c0-16.05-1.45-31.73-4.13-46.93h-229.6v93.86h138.95c-9.02,32.49-27.98,60.27-53.33,79.46l71.7,58.09c47.26-45.4,76.41-111.22,76.41-184.48Z"/>
  <path class="cls-3" d="M246.61,100.56c34.93,0,66.4,12.88,90.78,34.32l66.36-68.53C362.3,25.2,306.36,0,243.61,0,150.09,0,66.69,55.94,26.1,137.35l81.46,63.24c20.82-58.3,76.17-100.02,139.04-100.02Z"/>
  <path class="cls-1" d="M27.63,361.76l78.55-63.63c-4.78-14.72-7.42-30.41-7.42-46.72,0-17.83,3.13-34.94,8.8-50.82l-81.46-63.24C9.49,170.68,0,208.25,0,248.05s10.07,79.63,27.63,113.7Z"/>
  <path class="cls-2" d="M106.18,298.13l-78.55,63.63c41.13,79.78,123.61,134.35,215.98,134.35,61.34,0,116.19-24.06,157.32-63.58l-71.7-58.09c-23.08,17.46-51.44,27.81-82.63,27.81-64.34,0-120.78-43.68-140.43-104.12Z"/>
</svg>