<svg width="15" height="15" viewBox="0 0 15 15" fill="none" xmlns="http://www.w3.org/2000/svg">
<path d="M9.91667 4.08333H9.925M0.75 9.91663L4.08333 6.58329C4.46338 6.21759 4.89449 6.02506 5.33333 6.02506C5.77217 6.02506 6.20329 6.21759 6.58333 6.58329L10.75 10.75M9.08333 9.08329L9.91667 8.24996C10.2967 7.88426 10.7278 7.69173 11.1667 7.69173C11.6055 7.69173 12.0366 7.88426 12.4167 8.24996L14.0833 9.91663M3.25 0.75H11.5833C12.964 0.75 14.0833 1.86929 14.0833 3.25V11.5833C14.0833 12.964 12.964 14.0833 11.5833 14.0833H3.25C1.86929 14.0833 0.75 12.964 0.75 11.5833V3.25C0.75 1.86929 1.86929 0.75 3.25 0.75Z" stroke="#1B85F3" stroke-width="1.5" stroke-linecap="round" stroke-linejoin="round"/>
</svg>
