<?xml version="1.0" encoding="UTF-8"?>
<svg id="Layer_1" data-name="Layer 1" xmlns="http://www.w3.org/2000/svg" viewBox="0 0 420.32 499">
  <defs>
    <style>
      .cls-1 {
        fill: #231f20;
      }
    </style>
  </defs>
  <path class="cls-1" d="M1.22,246.25c-.73.12-.68,1.07,0,1.22,0,.43-.08.84-.24,1.22-.71.17-.68,1.03,0,1.22l-.24,1.22c-.56.31-.55,1.38,0,1.71l-.24,1.71c-.37.59-.37,1.36,0,1.95l-.24,2.19c-.18.32-.18.65,0,.98-.18.73-.18,1.46,0,2.19-.18.56-.18,1.14,0,1.71-.18.73-.18,1.46,0,2.19-.07.94-.15,1.92-.24,2.93v.73c.09.51.17,1,.24,1.46-.19.96-.19,1.97,0,2.93-.18.65-.18,1.31,0,1.95-.18.49-.18.98,0,1.46-.18.57-.18,1.14,0,1.71-.18.41-.18.82,0,1.22l.24,2.19c-.37.68-.38,1.52,0,2.19l.24,1.71c-.51.49-.52,1.22,0,1.71l.24,1.46c-.61.52-.61.95,0,1.46l.24,1.46c-.69.19-.72,1.05,0,1.22l.24,1.22c-.65.37-.67.6,0,.98,0,.43.07.84.24,1.22-.08.47-.15.93-.18,1.4-.03.47-.06.93-.01,1.39,6.26,56.96,32.52,113.16,68.01,157.24,12.26,15.22,27.76,32.03,46.39,39.08,3.91,1.48,8.44,2.95,12.58,2.53.38.17.79.25,1.22.24.18.16.38.21.49,0,.34.2.9.19,1.22,0,1.5.23,3.13.22,4.63,0,.5.19,1.19.21,1.71,0,.19.16.38.21.49,0l1.22-.24c6.38.34,13.06-1.64,19.19-3.5,8.18-2.74,16.31-5.64,24.38-8.7,8.67-3.08,17.58-5.66,26.78-6.46l1.58-.61,1.46-.24c.6.61,1.11.61,1.71,0l2.44-.24c2.36.59,4.71.59,7.07,0l2.19.24c.33.7,1.37.68,1.71,0l1.22.24c.51.28,1.04.57,1.61.67,8.63,1.48,16.93,3.05,25.13,6.28,25.07,9.69,50.02,18.76,75.77,6.14,19.22-9.42,35.12-29.56,47.56-46.74,17.31-23.91,31.43-50.12,40.62-76.91l.45-2.57v-.49c-.48-.46-.98-.9-1.57-1.2-9-4.48-16.45-8.42-24.45-14.68-28.9-22.6-44.62-56.06-42.73-92.78,1.5-29.07,12.91-53.22,34.37-72.78,6.63-6.05,13.89-11.1,21.32-16.1-20.96-31.91-59.68-48.87-97.08-50.22-25.77-.93-49.2,7.67-72.91,16.83-6.12,2.24-12.36,4.09-18.69,5.59-6.3,1.49-12.31-.01-18.32-1.9-11.73-3.79-23.4-7.82-35.04-12.1-9.01-2.96-18.3-5.69-27.76-6.7-.31-.03-.62,0-.95.06-.33.05-.65.13-.97.23l-1.22-.24c-.29-.73-1.39-.71-1.71,0l-2.93-.24c-.56-.48-1.15-.48-1.71,0l-3.66.24c-.68-.61-1.28-.61-1.95,0l-1.95.24c-.24-.7-.99-.71-1.22,0l-1.22.24c-.35-.09-.71-.17-1.07-.22-.36-.05-.71-.09-1.05-.05C51.63,126.86,8.45,181.04,1.22,242.99"/>
  <path class="cls-1" d="M236.49,115.44c31.92-8.82,62.05-41.41,72.96-72.1,4.91-13.82,6.77-28.71,5.3-43.34h-2.44c-.16,0-.32,0-.49,0-3.5.02-7.43.58-11.71,2.07-25.26,6.18-48.21,19.79-64.6,39.99-17.05,21.02-27.89,48.45-24.88,75.94,8.71.57,17.43-.24,25.84-2.56Z"/>
</svg>