<svg width="133" height="163" viewBox="0 0 133 163" fill="none" xmlns="http://www.w3.org/2000/svg">
<g opacity="0.8" filter="url(#filter0_dd_2613_90)">
<rect x="18.5" y="14.5" width="98.3333" height="126" rx="14" fill="white"/>
<rect x="18.5" y="14.5" width="98.3333" height="126" rx="14" stroke="#ECEFF2"/>
<rect x="46.666" y="34.5" width="42" height="42" rx="21" fill="#ECEFF2"/>
<path d="M74.8982 54.1757C74.7256 53.3981 74.3281 52.7332 73.8533 52.4011C73.2564 51.9834 72.5202 51.8075 71.7938 51.7503C71.0674 51.6932 70.3377 51.746 69.6091 51.7422C68.0899 51.734 66.2706 51.9088 64.8836 51.1475C64.411 50.8883 63.9928 50.5649 63.7406 50.0846C63.4499 49.5308 62.9848 49.0227 62.3744 48.8833C62.15 48.8321 61.9181 48.8327 61.6883 48.8338C61.4285 48.8349 61.1677 48.8365 60.9107 48.8746C60.7566 48.8975 60.6025 48.9345 60.4663 49.0097C60.2442 49.1327 60.0873 49.3478 59.9686 49.5727C59.8205 49.8526 59.4317 49.8156 59.123 49.8341C59.117 49.833 59.1115 49.8319 59.1055 49.8308C59.007 49.815 58.8932 49.8205 58.7946 49.833C58.7407 49.8401 58.6862 49.8537 58.641 49.8847C58.5147 49.9702 58.5 50.1483 58.5 50.2866C58.5 50.4249 58.5196 50.603 58.6405 50.6928C58.6154 51.1328 58.6378 51.5619 58.8011 51.9828C58.8659 52.1506 58.952 52.3221 59.1061 52.4147C59.252 52.5029 59.4322 52.504 59.6021 52.5192C59.9376 52.5486 60.2839 52.6521 60.5153 52.8966C60.7163 53.1095 60.8061 53.4003 60.9079 53.6747C61.2635 54.6342 61.7122 55.8801 62.4828 56.5532C62.577 56.6354 62.6728 56.7143 62.7714 56.7906C63.8779 59.516 62.5094 61.0668 62.5094 61.0668C61.8478 61.3533 62.0907 61.9043 62.0907 61.9043H63.678C64.1262 61.3021 64.4828 60.4847 64.76 59.6592C64.8657 60.4934 64.8041 61.0668 64.8041 61.0668C64.1425 61.3533 64.3854 61.9043 64.3854 61.9043H65.9727C66.7759 60.8245 66.7116 59.0618 66.5254 57.8018C67.0351 57.7294 67.4811 57.5954 67.8192 57.4691C68.3099 59.6908 70.3753 59.7099 70.3753 59.7099C71.3261 59.9135 71.5243 61.0668 71.5243 61.0668C70.8627 61.3533 71.0298 61.9043 71.0298 61.9043H72.8508C72.9951 60.9514 72.8148 60.2097 72.6003 59.7082C72.6253 59.7099 72.6389 59.7099 72.6389 59.7099C73.5897 59.9135 73.7879 61.0668 73.7879 61.0668C73.1263 61.3533 73.2935 61.9043 73.2935 61.9043H75.1144C75.4008 60.0083 74.4049 58.9502 74.4049 58.9502C73.532 58.0011 74.2726 57.0982 74.2726 57.0982C74.2916 57.0743 74.3107 57.0509 74.3286 57.0269C74.712 58.3523 75.6933 58.8636 75.6933 58.8636V58.538C76.2906 59.4251 77.6667 59.3526 77.6667 59.3526C76.4393 58.0011 75.348 55.3563 74.8982 54.1735V54.1757ZM63.2489 50.3215C63.1357 50.6504 63.0093 50.9695 62.8329 51.2717C62.7033 51.4939 62.5454 51.7536 62.3123 51.8897C62.0428 52.0476 61.8407 51.8434 61.7275 51.6093C61.6605 51.4715 61.6099 51.3212 61.569 51.1693C61.6001 51.2635 61.6355 51.3555 61.6779 51.4421C61.7912 51.6757 61.9932 51.8799 62.2628 51.7226C62.4953 51.5864 62.6537 51.3267 62.7833 51.1045C62.9592 50.8023 63.0861 50.4832 63.1994 50.1543C63.2418 50.0307 63.2593 49.9169 63.2473 49.8123C63.3213 49.9593 63.3159 50.1287 63.2495 50.3215H63.2489Z" fill="#808B9A"/>
<path d="M47.8838 94.012H51.6638V99.094C51.1318 99.2713 50.5858 99.4067 50.0258 99.5C49.4658 99.5933 48.8311 99.64 48.1218 99.64C47.1138 99.64 46.2598 99.4393 45.5598 99.038C44.8598 98.6367 44.3278 98.0533 43.9638 97.288C43.5998 96.5227 43.4178 95.5893 43.4178 94.488C43.4178 93.4427 43.6231 92.5373 44.0338 91.772C44.4445 91.0067 45.0325 90.414 45.7978 89.994C46.5725 89.574 47.5151 89.364 48.6258 89.364C49.1671 89.364 49.6898 89.42 50.1938 89.532C50.7071 89.6347 51.1738 89.7793 51.5938 89.966L50.9778 91.436C50.6605 91.2773 50.2918 91.1467 49.8718 91.044C49.4611 90.932 49.0318 90.876 48.5838 90.876C47.9025 90.876 47.3145 91.0253 46.8198 91.324C46.3251 91.6227 45.9425 92.0473 45.6718 92.598C45.4105 93.1393 45.2798 93.7787 45.2798 94.516C45.2798 95.2253 45.3825 95.8553 45.5878 96.406C45.7931 96.9473 46.1198 97.372 46.5678 97.68C47.0158 97.9787 47.5991 98.128 48.3178 98.128C48.5605 98.128 48.7705 98.1187 48.9478 98.1C49.1345 98.0813 49.3025 98.058 49.4518 98.03C49.6105 98.002 49.7598 97.974 49.8998 97.946V95.538H47.8838V94.012ZM57.86 91.772C57.972 91.772 58.1027 91.7767 58.252 91.786C58.4013 91.7953 58.5273 91.814 58.63 91.842L58.476 93.48C58.392 93.4613 58.28 93.4473 58.14 93.438C58.0093 93.4193 57.8927 93.41 57.79 93.41C57.51 93.41 57.2393 93.4567 56.978 93.55C56.726 93.634 56.4973 93.7647 56.292 93.942C56.096 94.11 55.9373 94.3293 55.816 94.6C55.704 94.8707 55.648 95.1927 55.648 95.566V99.5H53.884V91.912H55.242L55.494 93.228H55.578C55.7273 92.9573 55.914 92.7147 56.138 92.5C56.362 92.276 56.6187 92.0987 56.908 91.968C57.2067 91.8373 57.524 91.772 57.86 91.772ZM62.7869 91.772C63.7669 91.772 64.5089 91.9867 65.0129 92.416C65.5262 92.836 65.7829 93.4987 65.7829 94.404V99.5H64.5369L64.1869 98.45H64.1309C63.9162 98.7207 63.6922 98.9493 63.4589 99.136C63.2349 99.3133 62.9736 99.4393 62.6749 99.514C62.3856 99.598 62.0309 99.64 61.6109 99.64C61.1629 99.64 60.7569 99.556 60.3929 99.388C60.0382 99.22 59.7582 98.9633 59.5529 98.618C59.3476 98.2633 59.2449 97.82 59.2449 97.288C59.2449 96.504 59.5296 95.916 60.0989 95.524C60.6776 95.1227 61.5502 94.9033 62.7169 94.866L64.0329 94.824V94.446C64.0329 93.9607 63.9162 93.6153 63.6829 93.41C63.4496 93.2047 63.1229 93.102 62.7029 93.102C62.3202 93.102 61.9516 93.158 61.5969 93.27C61.2422 93.382 60.8969 93.5127 60.5609 93.662L60.0009 92.43C60.3742 92.234 60.7989 92.0753 61.2749 91.954C61.7602 91.8327 62.2642 91.772 62.7869 91.772ZM63.1089 95.944C62.3342 95.972 61.7976 96.1073 61.4989 96.35C61.2002 96.5833 61.0509 96.9007 61.0509 97.302C61.0509 97.6567 61.1582 97.9133 61.3729 98.072C61.5876 98.2307 61.8629 98.31 62.1989 98.31C62.7122 98.31 63.1462 98.1653 63.5009 97.876C63.8556 97.5773 64.0329 97.1387 64.0329 96.56V95.916L63.1089 95.944ZM72.0534 91.772C72.9027 91.772 73.5654 91.9913 74.0414 92.43C74.5267 92.8687 74.7694 93.578 74.7694 94.558V99.5H73.0054V94.908C73.0054 94.3387 72.8934 93.914 72.6694 93.634C72.4454 93.3447 72.0907 93.2 71.6054 93.2C70.896 93.2 70.4107 93.424 70.1494 93.872C69.888 94.3107 69.7574 94.95 69.7574 95.79V99.5H67.9934V91.912H69.3514L69.6034 92.906H69.7014C69.8694 92.6447 70.0747 92.43 70.3174 92.262C70.56 92.094 70.8307 91.9727 71.1294 91.898C71.428 91.814 71.736 91.772 72.0534 91.772ZM79.4818 99.64C78.6045 99.64 77.8905 99.3133 77.3398 98.66C76.7985 97.9973 76.5278 97.0173 76.5278 95.72C76.5278 94.4227 76.8031 93.4427 77.3538 92.78C77.9045 92.108 78.6278 91.772 79.5238 91.772C79.8971 91.772 80.2238 91.8233 80.5038 91.926C80.7931 92.0193 81.0405 92.15 81.2458 92.318C81.4511 92.486 81.6238 92.6727 81.7638 92.878H81.8478C81.8198 92.7473 81.7918 92.5467 81.7638 92.276C81.7358 92.0053 81.7218 91.7533 81.7218 91.52V88.86H83.4858V99.5H82.1138L81.7918 98.506H81.7218C81.5818 98.7113 81.4091 98.9027 81.2038 99.08C80.9985 99.248 80.7558 99.3833 80.4758 99.486C80.1958 99.5887 79.8645 99.64 79.4818 99.64ZM80.0138 98.212C80.6671 98.212 81.1291 98.0253 81.3998 97.652C81.6705 97.2787 81.8058 96.714 81.8058 95.958V95.734C81.8058 94.9127 81.6751 94.2873 81.4138 93.858C81.1618 93.4287 80.6858 93.214 79.9858 93.214C79.4538 93.214 79.0431 93.438 78.7538 93.886C78.4645 94.3247 78.3198 94.9453 78.3198 95.748C78.3198 96.5507 78.4645 97.162 78.7538 97.582C79.0431 98.002 79.4631 98.212 80.0138 98.212ZM88.7915 91.772C89.4728 91.772 90.0561 91.912 90.5415 92.192C91.0361 92.4627 91.4188 92.8547 91.6895 93.368C91.9601 93.872 92.0955 94.488 92.0955 95.216V96.112H87.0835C87.1021 96.8027 87.2935 97.3393 87.6575 97.722C88.0215 98.0953 88.5255 98.282 89.1695 98.282C89.6641 98.282 90.1028 98.2353 90.4855 98.142C90.8775 98.0393 91.2788 97.8947 91.6895 97.708V99.122C91.3161 99.2993 90.9288 99.43 90.5275 99.514C90.1261 99.598 89.6455 99.64 89.0855 99.64C88.3481 99.64 87.6901 99.5 87.1115 99.22C86.5421 98.9307 86.0941 98.4967 85.7675 97.918C85.4501 97.3393 85.2915 96.6207 85.2915 95.762C85.2915 94.894 85.4361 94.166 85.7255 93.578C86.0241 92.9807 86.4348 92.5327 86.9575 92.234C87.4801 91.926 88.0915 91.772 88.7915 91.772ZM88.7915 93.074C88.3248 93.074 87.9421 93.228 87.6435 93.536C87.3541 93.8347 87.1815 94.2827 87.1255 94.88H90.3875C90.3875 94.5253 90.3268 94.2127 90.2055 93.942C90.0935 93.6713 89.9208 93.4613 89.6875 93.312C89.4541 93.1533 89.1555 93.074 88.7915 93.074Z" fill="#39434F"/>
<path d="M36.9733 117.5L34.1533 109.988H34.1053C34.1213 110.148 34.1333 110.352 34.1413 110.6C34.1573 110.848 34.1693 111.12 34.1773 111.416C34.1853 111.704 34.1893 112 34.1893 112.304V117.5H33.1933V108.932H34.7893L37.4293 115.952H37.4773L40.1653 108.932H41.7493V117.5H40.6813V112.232C40.6813 111.952 40.6853 111.676 40.6933 111.404C40.7013 111.124 40.7133 110.864 40.7293 110.624C40.7453 110.376 40.7573 110.168 40.7653 110H40.7173L37.8613 117.5H36.9733ZM46.372 110.96C47.156 110.96 47.736 111.132 48.112 111.476C48.488 111.82 48.676 112.368 48.676 113.12V117.5H47.908L47.704 116.588H47.656C47.472 116.82 47.28 117.016 47.08 117.176C46.888 117.328 46.664 117.44 46.408 117.512C46.16 117.584 45.856 117.62 45.496 117.62C45.112 117.62 44.764 117.552 44.452 117.416C44.148 117.28 43.908 117.072 43.732 116.792C43.556 116.504 43.468 116.144 43.468 115.712C43.468 115.072 43.72 114.58 44.224 114.236C44.728 113.884 45.504 113.692 46.552 113.66L47.644 113.624V113.24C47.644 112.704 47.528 112.332 47.296 112.124C47.064 111.916 46.736 111.812 46.312 111.812C45.976 111.812 45.656 111.864 45.352 111.968C45.048 112.064 44.764 112.176 44.5 112.304L44.176 111.512C44.456 111.36 44.788 111.232 45.172 111.128C45.556 111.016 45.956 110.96 46.372 110.96ZM46.684 114.392C45.884 114.424 45.328 114.552 45.016 114.776C44.712 115 44.56 115.316 44.56 115.724C44.56 116.084 44.668 116.348 44.884 116.516C45.108 116.684 45.392 116.768 45.736 116.768C46.28 116.768 46.732 116.62 47.092 116.324C47.452 116.02 47.632 115.556 47.632 114.932V114.356L46.684 114.392ZM48.064 108.428C47.992 108.54 47.888 108.676 47.752 108.836C47.616 108.996 47.464 109.164 47.296 109.34C47.136 109.508 46.972 109.672 46.804 109.832C46.644 109.984 46.492 110.116 46.348 110.228H45.652V110.084C45.772 109.932 45.9 109.752 46.036 109.544C46.18 109.336 46.32 109.124 46.456 108.908C46.592 108.684 46.704 108.484 46.792 108.308H48.064V108.428ZM54.8506 115.724C54.8506 116.14 54.7466 116.488 54.5386 116.768C54.3306 117.048 54.0346 117.26 53.6506 117.404C53.2666 117.548 52.8106 117.62 52.2826 117.62C51.8346 117.62 51.4466 117.584 51.1186 117.512C50.7986 117.44 50.5146 117.34 50.2666 117.212V116.252C50.5226 116.38 50.8306 116.5 51.1906 116.612C51.5586 116.716 51.9306 116.768 52.3066 116.768C52.8426 116.768 53.2306 116.684 53.4706 116.516C53.7106 116.34 53.8306 116.108 53.8306 115.82C53.8306 115.66 53.7866 115.516 53.6986 115.388C53.6106 115.26 53.4506 115.132 53.2186 115.004C52.9946 114.876 52.6706 114.732 52.2466 114.572C51.8306 114.412 51.4746 114.252 51.1786 114.092C50.8826 113.932 50.6546 113.74 50.4946 113.516C50.3346 113.292 50.2546 113.004 50.2546 112.652C50.2546 112.108 50.4746 111.688 50.9146 111.392C51.3626 111.096 51.9466 110.948 52.6666 110.948C53.0586 110.948 53.4226 110.988 53.7586 111.068C54.1026 111.14 54.4226 111.244 54.7186 111.38L54.3586 112.22C54.1826 112.14 53.9946 112.072 53.7946 112.016C53.6026 111.952 53.4066 111.904 53.2066 111.872C53.0066 111.832 52.8026 111.812 52.5946 111.812C52.1626 111.812 51.8306 111.884 51.5986 112.028C51.3746 112.164 51.2626 112.352 51.2626 112.592C51.2626 112.768 51.3146 112.92 51.4186 113.048C51.5226 113.168 51.6946 113.288 51.9346 113.408C52.1826 113.52 52.5106 113.656 52.9186 113.816C53.3266 113.968 53.6746 114.124 53.9626 114.284C54.2506 114.444 54.4706 114.64 54.6226 114.872C54.7746 115.096 54.8506 115.38 54.8506 115.724ZM61.802 117.62C61.002 117.62 60.362 117.344 59.882 116.792C59.402 116.232 59.162 115.4 59.162 114.296C59.162 113.192 59.402 112.36 59.882 111.8C60.37 111.232 61.014 110.948 61.814 110.948C62.15 110.948 62.442 110.992 62.69 111.08C62.938 111.16 63.154 111.272 63.338 111.416C63.522 111.56 63.678 111.72 63.806 111.896H63.878C63.87 111.792 63.854 111.64 63.83 111.44C63.814 111.232 63.806 111.068 63.806 110.948V108.38H64.862V117.5H64.01L63.854 116.636H63.806C63.678 116.82 63.522 116.988 63.338 117.14C63.154 117.284 62.934 117.4 62.678 117.488C62.43 117.576 62.138 117.62 61.802 117.62ZM61.97 116.744C62.65 116.744 63.126 116.56 63.398 116.192C63.678 115.816 63.818 115.252 63.818 114.5V114.308C63.818 113.508 63.686 112.896 63.422 112.472C63.158 112.04 62.67 111.824 61.958 111.824C61.39 111.824 60.962 112.052 60.674 112.508C60.394 112.956 60.254 113.56 60.254 114.32C60.254 115.088 60.394 115.684 60.674 116.108C60.962 116.532 61.394 116.744 61.97 116.744ZM69.3888 110.948C69.9408 110.948 70.4128 111.068 70.8048 111.308C71.2048 111.548 71.5088 111.888 71.7168 112.328C71.9328 112.76 72.0408 113.268 72.0408 113.852V114.488H67.6368C67.6528 115.216 67.8368 115.772 68.1888 116.156C68.5488 116.532 69.0488 116.72 69.6888 116.72C70.0968 116.72 70.4568 116.684 70.7688 116.612C71.0888 116.532 71.4168 116.42 71.7528 116.276V117.2C71.4248 117.344 71.1008 117.448 70.7808 117.512C70.4608 117.584 70.0808 117.62 69.6408 117.62C69.0328 117.62 68.4928 117.496 68.0208 117.248C67.5568 117 67.1928 116.632 66.9288 116.144C66.6728 115.648 66.5448 115.044 66.5448 114.332C66.5448 113.628 66.6608 113.024 66.8928 112.52C67.1328 112.016 67.4648 111.628 67.8888 111.356C68.3208 111.084 68.8208 110.948 69.3888 110.948ZM69.3768 111.812C68.8728 111.812 68.4728 111.976 68.1768 112.304C67.8888 112.624 67.7168 113.072 67.6608 113.648H70.9368C70.9368 113.28 70.8808 112.96 70.7688 112.688C70.6568 112.416 70.4848 112.204 70.2528 112.052C70.0288 111.892 69.7368 111.812 69.3768 111.812ZM82.0154 117.5H76.3514V116.624L78.5954 114.356C79.0274 113.924 79.3914 113.54 79.6874 113.204C79.9834 112.868 80.2074 112.54 80.3594 112.22C80.5114 111.892 80.5874 111.536 80.5874 111.152C80.5874 110.68 80.4474 110.324 80.1674 110.084C79.8874 109.836 79.5234 109.712 79.0754 109.712C78.6594 109.712 78.2914 109.784 77.9714 109.928C77.6594 110.072 77.3394 110.272 77.0114 110.528L76.4474 109.82C76.6714 109.628 76.9154 109.456 77.1794 109.304C77.4514 109.152 77.7434 109.032 78.0554 108.944C78.3754 108.856 78.7154 108.812 79.0754 108.812C79.6114 108.812 80.0714 108.904 80.4554 109.088C80.8394 109.272 81.1354 109.536 81.3434 109.88C81.5594 110.216 81.6674 110.62 81.6674 111.092C81.6674 111.428 81.6154 111.748 81.5114 112.052C81.4074 112.348 81.2594 112.64 81.0674 112.928C80.8754 113.216 80.6434 113.508 80.3714 113.804C80.0994 114.1 79.7994 114.408 79.4714 114.728L77.6834 116.492V116.54H82.0154V117.5ZM85.9426 112.244C86.5266 112.244 87.0346 112.344 87.4666 112.544C87.8986 112.744 88.2306 113.032 88.4626 113.408C88.7026 113.776 88.8226 114.228 88.8226 114.764C88.8226 115.356 88.6946 115.868 88.4386 116.3C88.1826 116.724 87.8146 117.052 87.3346 117.284C86.8626 117.508 86.2906 117.62 85.6186 117.62C85.1786 117.62 84.7626 117.58 84.3706 117.5C83.9866 117.42 83.6626 117.304 83.3986 117.152V116.156C83.6866 116.332 84.0346 116.472 84.4426 116.576C84.8586 116.672 85.2546 116.72 85.6306 116.72C86.0546 116.72 86.4226 116.656 86.7346 116.528C87.0546 116.392 87.3026 116.188 87.4786 115.916C87.6546 115.636 87.7426 115.288 87.7426 114.872C87.7426 114.312 87.5706 113.884 87.2266 113.588C86.8826 113.284 86.3386 113.132 85.5946 113.132C85.3706 113.132 85.1146 113.152 84.8266 113.192C84.5386 113.232 84.3066 113.272 84.1306 113.312L83.6026 112.976L83.9266 108.932H88.2226V109.892H84.8266L84.6226 112.376C84.7586 112.352 84.9426 112.324 85.1746 112.292C85.4066 112.26 85.6626 112.244 85.9426 112.244ZM91.5738 113.144C91.5738 113.272 91.5658 113.44 91.5498 113.648C91.5418 113.856 91.5338 114.036 91.5258 114.188H91.5738C91.6218 114.124 91.6938 114.032 91.7898 113.912C91.8858 113.792 91.9818 113.672 92.0778 113.552C92.1818 113.424 92.2698 113.32 92.3418 113.24L94.3938 111.068H95.6298L93.0258 113.816L95.8098 117.5H94.5378L92.3058 114.5L91.5738 115.136V117.5H90.5298V108.38H91.5738V113.144ZM99.2199 110.948C99.6439 110.948 100.024 111.028 100.36 111.188C100.704 111.348 100.996 111.592 101.236 111.92H101.296L101.44 111.068H102.28V117.608C102.28 118.216 102.176 118.724 101.968 119.132C101.76 119.548 101.444 119.86 101.02 120.068C100.596 120.276 100.056 120.38 99.3999 120.38C98.9359 120.38 98.5079 120.344 98.1159 120.272C97.7319 120.208 97.3879 120.108 97.0839 119.972V119C97.2919 119.104 97.5199 119.192 97.7679 119.264C98.0159 119.344 98.2839 119.404 98.5719 119.444C98.8599 119.484 99.1559 119.504 99.4599 119.504C100.012 119.504 100.444 119.34 100.756 119.012C101.076 118.692 101.236 118.252 101.236 117.692V117.44C101.236 117.344 101.24 117.208 101.248 117.032C101.256 116.848 101.264 116.72 101.272 116.648H101.224C101 116.976 100.72 117.22 100.384 117.38C100.056 117.54 99.6719 117.62 99.2319 117.62C98.3999 117.62 97.7479 117.328 97.2759 116.744C96.8119 116.16 96.5799 115.344 96.5799 114.296C96.5799 113.608 96.6839 113.016 96.8919 112.52C97.1079 112.016 97.4119 111.628 97.8039 111.356C98.1959 111.084 98.6679 110.948 99.2199 110.948ZM99.3639 111.836C99.0039 111.836 98.6959 111.932 98.4399 112.124C98.1919 112.316 97.9999 112.596 97.8639 112.964C97.7359 113.332 97.6719 113.78 97.6719 114.308C97.6719 115.1 97.8159 115.708 98.1039 116.132C98.3999 116.548 98.8279 116.756 99.3879 116.756C99.7159 116.756 99.9959 116.716 100.228 116.636C100.46 116.548 100.652 116.416 100.804 116.24C100.956 116.056 101.068 115.824 101.14 115.544C101.212 115.264 101.248 114.932 101.248 114.548V114.296C101.248 113.712 101.18 113.24 101.044 112.88C100.916 112.52 100.712 112.256 100.432 112.088C100.152 111.92 99.7959 111.836 99.3639 111.836Z" fill="#808B9A"/>
</g>
<defs>
<filter id="filter0_dd_2613_90" x="0" y="0" width="135.334" height="163" filterUnits="userSpaceOnUse" color-interpolation-filters="sRGB">
<feFlood flood-opacity="0" result="BackgroundImageFix"/>
<feColorMatrix in="SourceAlpha" type="matrix" values="0 0 0 0 0 0 0 0 0 0 0 0 0 0 0 0 0 0 127 0" result="hardAlpha"/>
<feMorphology radius="2" operator="erode" in="SourceAlpha" result="effect1_dropShadow_2613_90"/>
<feOffset dy="4"/>
<feGaussianBlur stdDeviation="10"/>
<feColorMatrix type="matrix" values="0 0 0 0 0.196078 0 0 0 0 0.196078 0 0 0 0 0.278431 0 0 0 0.02 0"/>
<feBlend mode="normal" in2="BackgroundImageFix" result="effect1_dropShadow_2613_90"/>
<feColorMatrix in="SourceAlpha" type="matrix" values="0 0 0 0 0 0 0 0 0 0 0 0 0 0 0 0 0 0 127 0" result="hardAlpha"/>
<feOffset/>
<feGaussianBlur stdDeviation="2.5"/>
<feColorMatrix type="matrix" values="0 0 0 0 0.0470588 0 0 0 0 0.101961 0 0 0 0 0.294118 0 0 0 0.05 0"/>
<feBlend mode="normal" in2="effect1_dropShadow_2613_90" result="effect2_dropShadow_2613_90"/>
<feBlend mode="normal" in="SourceGraphic" in2="effect2_dropShadow_2613_90" result="shape"/>
</filter>
</defs>
</svg>
