<?xml version="1.0" encoding="UTF-8"?>
<svg id="Layer_1" data-name="Layer 1" xmlns="http://www.w3.org/2000/svg" viewBox="0 0 1023.37 992.96">
  <defs>
    <style>
      .cls-1 {
        fill: #f3b38f;
      }

      .cls-2 {
        fill: #fefcfa;
      }

      .cls-3 {
        fill: #fefdfc;
      }

      .cls-4 {
        fill: #fbedc9;
      }

      .cls-5 {
        fill: #ee7233;
      }

      .cls-6 {
        fill: #e9632c;
      }
    </style>
  </defs>
  <path class="cls-4" d="M1.53,560.74C-3.97,310.94-11.7,30.18,311.44,5.91c108.04-8.12,407.12-12.11,501.78,17,86.6,26.64,210.14,148.63,210.14,242.31v134.99c-53.93-23.48-140.49-31.31-186.06-65.73-49.13-37.1-51.76-116.25-88.1-167.31-8.56-12.03-67.81-93.36-171.22-120.65-17.39-4.59-32.29-6.66-42.72-7.7-2.74,20.74-5.48,41.48-8.21,62.22,15.24,50.62,6.07,108.54-21.9,153.23,5.09,84.77-2.79,167.54-23.62,248.29l-12.88,14.39c-35.67,49.86-77.48,87.74-125.44,113.62-155.53,29.62-189.97-89.31-217.61-208.48-4.74-15.11-14.16-6.68-28.27,25.29l-15.52,3.9c9.28,16.2-54.47,106.03-62.36,109.68-5.78,2.68-12.1,1.7-17.93-.23Z"/>
  <path class="cls-5" d="M527.04,101.05c48.03,14.36,115.64,43.37,149.9,79.99,83.32,89.03,27.56,176.14,178.75,237.21,21.5,8.69,122.28,31.68,127.81,40.04,24.08,36.4-30.15,147.14-55.02,179.07-72.94,93.65-162.73,66.91-264.53,85.79-146.14,27.11-227.47,127.67-262.01,267.08-123.98,13.04-254.72-19.49-333.48-120.62C-5.96,774.04,4.04,674.74,1.53,560.74c23.49-39.03,50.12-80.02,80.29-122.22,24.62-34.43,49.21-66.33,73.29-95.77-18.18,36.79-36.37,73.58-54.55,110.37-14.19,169.43,58.09,275.71,238.1,252.83,123.08-15.64,144.02-137.8,156.91-239.47,8.82-69.55,10.64-143.36,9.57-212.21,6.71-50.97,15.27-102.31,21.9-153.23Z"/>
  <path class="cls-1" d="M475.95,991.24c5.3-72.72,58.4-147.55,124.1-178.75,117.14-55.61,254.82-4.69,354.25-105.55l69.06-102.43v134.99c0,105.59-170.61,251.73-273.71,251.73h-273.71Z"/>
  <path class="cls-6" d="M99.16,416.56c3.76-6.3,7.09-10.64,9.65-14.1,16.1-21.78,36.1-46.97,46.29-59.71-6.1,17.55-12.57,35.38-19.45,53.46-3.32,8.74-6.68,17.37-10.05,25.89l8.83,22.11c-57.19,208.21,251.58,308.58,315.22,91.11l18.99-18.37c18.38-86.16,25-175.4,36.49-262.68,12.09,7.59,7.3,27.7,7.43,40.03,1.49,141.73,17.42,405.58-178.93,426.98-66.63,7.26-137.3-4.65-185.06-46.12-87.69-76.14-69.92-196.83-67.14-210.86,5.35-27.03,17.72-47.75,17.72-47.75Z"/>
  <path class="cls-3" d="M468.65,516.96c-52.48,246-354.72,171.81-357.83-25.9-.37-23.51,8.93-46.72,14.78-68.96,38.97,22.49,32.18,78.99,47.49,116.7,27.27,67.17,109.63,96.66,176.81,74.71,50.92-16.64,63.09-87.74,118.74-96.55Z"/>
  <path class="cls-2" d="M642.07,343.6c37.88,37.97-30.76,105.97-64.37,53.42-31.9-49.88,35.53-82.33,64.37-53.42Z"/>
</svg>