<svg width="136" height="163" viewBox="0 0 136 163" fill="none" xmlns="http://www.w3.org/2000/svg">
<g opacity="0.8" filter="url(#filter0_dd_2613_83)">
<rect x="18.5" y="14.5" width="98.3333" height="126" rx="14" fill="white"/>
<rect x="18.5" y="14.5" width="98.3333" height="126" rx="14" stroke="#ECEFF2"/>
<rect x="46.666" y="34.5" width="42" height="42" rx="21" fill="#ECEFF2"/>
<path d="M74.7802 55.2617L74.3058 55.2809C74.3058 55.2809 74.9882 54.7928 75.1916 53.6699L74.8723 53.96C74.8723 53.96 75.0273 52.2184 74.1807 51.1293V51.6328C74.1807 51.6328 73.9482 50.8492 72.7439 50.3602L73.1891 51.0764C73.1891 51.0764 72.1736 49.8959 70.3154 50.2919L71.0023 50.4569C71.0023 50.4569 69.5264 50.6258 69.1825 51.6758L69.5694 51.4724C69.5694 51.4724 69.1917 52.2269 69.2984 52.8854C69.2984 52.8854 69.7728 52.2369 70.6969 52.329L70.2179 52.5754C70.2179 52.5754 71.5289 52.2131 72.1966 52.7841L71.8628 52.8762C71.8628 52.8762 72.7048 53.0604 72.5014 53.805L72.1483 53.5486C72.1483 53.5486 72.4806 54.1434 71.8812 54.5594C70.7844 53.818 69.323 53.8525 69.323 53.8525L66.4347 53.6407C65.6012 53.5801 65.0125 53.0474 64.6725 52.3159C64.618 52.1985 64.5688 52.0795 64.5197 51.9598C64.4767 51.8554 64.4337 51.7518 64.3908 51.6474C64.3271 51.4931 64.2749 51.3358 64.2119 51.1815C64.0231 50.7248 63.7675 50.2635 63.3769 49.9757C63.2748 49.5904 63.1174 49.1322 62.8741 48.664C62.8741 48.664 62.7006 48.3286 62.627 48.6172C62.5732 48.8259 62.475 49.1422 62.4781 49.6472C62.0866 49.6057 61.6775 49.6695 61.3421 49.8452C61.0397 50.0041 60.8593 50.2712 60.5945 50.4738C60.4433 50.589 60.2246 50.6105 60.045 50.5943C59.9206 50.5836 59.7648 50.5636 59.6213 50.5798C59.6052 50.569 59.5875 50.5606 59.5668 50.5552C59.5138 50.5398 59.4517 50.5352 59.3972 50.536C59.3672 50.536 59.3365 50.5398 59.3097 50.5537C59.2352 50.592 59.2153 50.688 59.206 50.764C59.1999 50.8146 59.1976 50.8753 59.2145 50.9274C59.1592 51.1186 59.1623 51.355 59.1707 51.5077C59.183 51.7318 59.2567 51.9606 59.414 52.1202C59.5537 52.2614 59.7449 52.3382 59.9337 52.3988C60.1908 52.4817 60.4556 52.5424 60.7012 52.6552C61.095 52.8348 61.3575 53.1786 61.4603 53.5954C61.5647 54.0222 61.5094 55.7476 61.4879 56.182L61.7067 55.9042C61.7067 55.9042 61.6468 56.5113 61.7366 56.9388L61.7965 56.7546C62.8388 60.3759 61.5447 62.1796 61.5447 62.1796C60.9591 62.4398 61.1111 62.9632 61.1111 62.9632H62.1165C62.7237 62.5242 63.0238 61.0283 63.0238 61.0283L63.208 61.2647L63.0483 60.5693L63.2993 61.0551C63.3508 60.491 63.1259 59.9 63.1259 59.9L63.5089 60.7136C63.5073 60.2147 63.0714 59.1125 63.0714 59.1125L63.3247 59.487C63.8282 61.4389 63.3792 62.1796 63.3792 62.1796C62.7928 62.4398 62.944 62.9632 62.944 62.9632H63.8727C64.4806 62.5242 64.7837 61.0283 64.7837 61.0283L64.9672 61.2647L64.8098 60.5693L65.0593 61.0551C65.1115 60.491 64.8889 59.9 64.8889 59.9L65.2696 60.7136C65.2696 60.2147 64.8367 59.1125 64.8367 59.1125L65.2696 59.7557C65.265 59.5784 65.1936 59.3358 65.1046 59.0994C65.5574 59.1685 66.1822 59.19 66.9306 59.0273L66.4033 58.9099L67.3427 58.8139C67.89 60.7988 69.7229 60.8249 69.7229 60.8249C70.505 60.9669 70.6823 62.3315 70.6823 62.3315C70.3745 62.6754 70.396 63.007 70.396 63.007C70.396 63.007 70.3968 63.0093 70.3991 63.0131L71.4636 63.007C71.918 61.9685 71.4667 61.1127 71.1374 60.676C71.5427 60.8203 71.8551 60.8249 71.8551 60.8249C72.6372 60.9669 72.8145 62.3315 72.8145 62.3315C72.5067 62.6754 72.5282 63.007 72.5282 63.007C72.5282 63.007 72.529 63.0093 72.5313 63.0131L73.5959 63.007C74.259 61.4911 72.9918 60.3636 72.9918 60.3636C72.4231 60.0082 72.7431 59.6528 72.7431 59.6528C73.1829 58.8907 73.1875 58.3941 73.1753 58.2444L73.2758 59.0849C73.6665 58.5161 73.4531 57.4861 73.4531 57.4861C73.8438 58.0548 73.7371 58.4102 73.7371 58.4102C74.269 56.806 72.9458 56.007 72.9458 56.007C72.9143 55.898 72.8774 55.7944 72.8352 55.6962C73.1614 55.7223 74.0196 55.7361 74.7802 55.2656V55.2617Z" fill="#919AA6"/>
<path d="M43.3998 99.5L40.6558 91.31H40.5998C40.6091 91.4967 40.6231 91.7627 40.6418 92.108C40.6605 92.444 40.6745 92.8127 40.6838 93.214C40.7025 93.606 40.7118 93.9747 40.7118 94.32V99.5H39.1018V89.504H41.5938L44.2258 97.358H44.2818L47.0258 89.504H49.5178V99.5H47.8098V94.236C47.8098 93.9187 47.8145 93.5733 47.8238 93.2C47.8425 92.8173 47.8565 92.458 47.8658 92.122C47.8845 91.7767 47.8985 91.5107 47.9078 91.324H47.8518L44.9958 99.5H43.3998ZM54.9878 91.772C55.6691 91.772 56.2524 91.912 56.7378 92.192C57.2324 92.4627 57.6151 92.8547 57.8858 93.368C58.1564 93.872 58.2918 94.488 58.2918 95.216V96.112H53.2798C53.2984 96.8027 53.4898 97.3393 53.8538 97.722C54.2178 98.0953 54.7218 98.282 55.3658 98.282C55.8604 98.282 56.2991 98.2353 56.6818 98.142C57.0738 98.0393 57.4751 97.8947 57.8858 97.708V99.122C57.5124 99.2993 57.1251 99.43 56.7238 99.514C56.3224 99.598 55.8418 99.64 55.2818 99.64C54.5444 99.64 53.8864 99.5 53.3078 99.22C52.7384 98.9307 52.2904 98.4967 51.9638 97.918C51.6464 97.3393 51.4878 96.6207 51.4878 95.762C51.4878 94.894 51.6324 94.166 51.9218 93.578C52.2204 92.9807 52.6311 92.5327 53.1538 92.234C53.6764 91.926 54.2878 91.772 54.9878 91.772ZM54.9878 93.074C54.5211 93.074 54.1384 93.228 53.8398 93.536C53.5504 93.8347 53.3778 94.2827 53.3218 94.88H56.5838C56.5838 94.5253 56.5231 94.2127 56.4018 93.942C56.2898 93.6713 56.1171 93.4613 55.8838 93.312C55.6504 93.1533 55.3518 93.074 54.9878 93.074ZM62.5765 99.64C61.6992 99.64 60.9852 99.3133 60.4345 98.66C59.8932 97.9973 59.6225 97.0173 59.6225 95.72C59.6225 94.4227 59.8979 93.4427 60.4485 92.78C60.9992 92.108 61.7225 91.772 62.6185 91.772C62.9919 91.772 63.3185 91.8233 63.5985 91.926C63.8879 92.0193 64.1352 92.15 64.3405 92.318C64.5459 92.486 64.7185 92.6727 64.8585 92.878H64.9425C64.9145 92.7473 64.8865 92.5467 64.8585 92.276C64.8305 92.0053 64.8165 91.7533 64.8165 91.52V88.86H66.5805V99.5H65.2085L64.8865 98.506H64.8165C64.6765 98.7113 64.5039 98.9027 64.2985 99.08C64.0932 99.248 63.8505 99.3833 63.5705 99.486C63.2905 99.5887 62.9592 99.64 62.5765 99.64ZM63.1085 98.212C63.7619 98.212 64.2239 98.0253 64.4945 97.652C64.7652 97.2787 64.9005 96.714 64.9005 95.958V95.734C64.9005 94.9127 64.7699 94.2873 64.5085 93.858C64.2565 93.4287 63.7805 93.214 63.0805 93.214C62.5485 93.214 62.1379 93.438 61.8485 93.886C61.5592 94.3247 61.4145 94.9453 61.4145 95.748C61.4145 96.5507 61.5592 97.162 61.8485 97.582C62.1379 98.002 62.5579 98.212 63.1085 98.212ZM70.5982 91.912V99.5H68.8342V91.912H70.5982ZM69.7162 88.986C69.9775 88.986 70.2062 89.056 70.4022 89.196C70.5982 89.3267 70.6962 89.5647 70.6962 89.91C70.6962 90.246 70.5982 90.4887 70.4022 90.638C70.2062 90.778 69.9775 90.848 69.7162 90.848C69.4455 90.848 69.2122 90.778 69.0162 90.638C68.8295 90.4887 68.7362 90.246 68.7362 89.91C68.7362 89.5647 68.8295 89.3267 69.0162 89.196C69.2122 89.056 69.4455 88.986 69.7162 88.986ZM75.8777 91.772C76.8577 91.772 77.5997 91.9867 78.1037 92.416C78.6171 92.836 78.8737 93.4987 78.8737 94.404V99.5H77.6277L77.2777 98.45H77.2217C77.0071 98.7207 76.7831 98.9493 76.5497 99.136C76.3257 99.3133 76.0644 99.4393 75.7657 99.514C75.4764 99.598 75.1217 99.64 74.7017 99.64C74.2537 99.64 73.8477 99.556 73.4837 99.388C73.1291 99.22 72.8491 98.9633 72.6437 98.618C72.4384 98.2633 72.3357 97.82 72.3357 97.288C72.3357 96.504 72.6204 95.916 73.1897 95.524C73.7684 95.1227 74.6411 94.9033 75.8077 94.866L77.1237 94.824V94.446C77.1237 93.9607 77.0071 93.6153 76.7737 93.41C76.5404 93.2047 76.2137 93.102 75.7937 93.102C75.4111 93.102 75.0424 93.158 74.6877 93.27C74.3331 93.382 73.9877 93.5127 73.6517 93.662L73.0917 92.43C73.4651 92.234 73.8897 92.0753 74.3657 91.954C74.8511 91.8327 75.3551 91.772 75.8777 91.772ZM76.1997 95.944C75.4251 95.972 74.8884 96.1073 74.5897 96.35C74.2911 96.5833 74.1417 96.9007 74.1417 97.302C74.1417 97.6567 74.2491 97.9133 74.4637 98.072C74.6784 98.2307 74.9537 98.31 75.2897 98.31C75.8031 98.31 76.2371 98.1653 76.5917 97.876C76.9464 97.5773 77.1237 97.1387 77.1237 96.56V95.916L76.1997 95.944ZM85.1442 91.772C85.9935 91.772 86.6562 91.9913 87.1322 92.43C87.6175 92.8687 87.8602 93.578 87.8602 94.558V99.5H86.0962V94.908C86.0962 94.3387 85.9842 93.914 85.7602 93.634C85.5362 93.3447 85.1815 93.2 84.6962 93.2C83.9869 93.2 83.5015 93.424 83.2402 93.872C82.9789 94.3107 82.8482 94.95 82.8482 95.79V99.5H81.0842V91.912H82.4422L82.6942 92.906H82.7922C82.9602 92.6447 83.1655 92.43 83.4082 92.262C83.6509 92.094 83.9215 91.9727 84.2202 91.898C84.5189 91.814 84.8269 91.772 85.1442 91.772ZM96.8426 95.692C96.8426 96.3267 96.7586 96.8867 96.5906 97.372C96.4226 97.8573 96.18 98.2727 95.8626 98.618C95.5546 98.954 95.172 99.2107 94.7146 99.388C94.2666 99.556 93.7673 99.64 93.2166 99.64C92.694 99.64 92.2133 99.556 91.7746 99.388C91.336 99.2107 90.9533 98.954 90.6266 98.618C90.3093 98.2727 90.062 97.8573 89.8846 97.372C89.7073 96.8867 89.6186 96.3267 89.6186 95.692C89.6186 94.852 89.7633 94.1427 90.0526 93.564C90.342 92.976 90.7573 92.5327 91.2986 92.234C91.8493 91.926 92.498 91.772 93.2446 91.772C93.954 91.772 94.5746 91.926 95.1066 92.234C95.648 92.5327 96.0726 92.976 96.3806 93.564C96.6886 94.1427 96.8426 94.852 96.8426 95.692ZM91.4246 95.692C91.4246 96.224 91.4853 96.6813 91.6066 97.064C91.7373 97.4373 91.9333 97.722 92.1946 97.918C92.4653 98.114 92.8106 98.212 93.2306 98.212C93.66 98.212 94.0053 98.114 94.2666 97.918C94.5373 97.722 94.7333 97.4373 94.8546 97.064C94.976 96.6813 95.0366 96.224 95.0366 95.692C95.0366 95.1507 94.9713 94.698 94.8406 94.334C94.7193 93.9607 94.5233 93.6807 94.2526 93.494C93.9913 93.298 93.6506 93.2 93.2306 93.2C92.596 93.2 92.134 93.4147 91.8446 93.844C91.5646 94.2733 91.4246 94.8893 91.4246 95.692Z" fill="#39434F"/>
<path d="M46.2444 117.5H45.2124V111.512C45.2124 111.28 45.2124 111.084 45.2124 110.924C45.2204 110.764 45.2284 110.616 45.2364 110.48C45.2444 110.336 45.2524 110.188 45.2604 110.036C45.1324 110.164 45.0164 110.272 44.9124 110.36C44.8084 110.448 44.6764 110.56 44.5164 110.696L43.6044 111.44L43.0524 110.732L45.3684 108.932H46.2444V117.5ZM52.1516 112.244C52.7356 112.244 53.2436 112.344 53.6756 112.544C54.1076 112.744 54.4396 113.032 54.6716 113.408C54.9116 113.776 55.0316 114.228 55.0316 114.764C55.0316 115.356 54.9036 115.868 54.6476 116.3C54.3916 116.724 54.0236 117.052 53.5436 117.284C53.0716 117.508 52.4996 117.62 51.8276 117.62C51.3876 117.62 50.9716 117.58 50.5796 117.5C50.1956 117.42 49.8716 117.304 49.6076 117.152V116.156C49.8956 116.332 50.2436 116.472 50.6516 116.576C51.0676 116.672 51.4636 116.72 51.8396 116.72C52.2636 116.72 52.6316 116.656 52.9436 116.528C53.2636 116.392 53.5116 116.188 53.6876 115.916C53.8636 115.636 53.9516 115.288 53.9516 114.872C53.9516 114.312 53.7796 113.884 53.4356 113.588C53.0916 113.284 52.5476 113.132 51.8036 113.132C51.5796 113.132 51.3236 113.152 51.0356 113.192C50.7476 113.232 50.5156 113.272 50.3396 113.312L49.8116 112.976L50.1356 108.932H54.4316V109.892H51.0356L50.8316 112.376C50.9676 112.352 51.1516 112.324 51.3836 112.292C51.6156 112.26 51.8716 112.244 52.1516 112.244ZM59.3159 114.752V113.816H62.2199V114.752H59.3159ZM72.0603 117.5H66.3963V116.624L68.6403 114.356C69.0723 113.924 69.4363 113.54 69.7323 113.204C70.0283 112.868 70.2523 112.54 70.4043 112.22C70.5563 111.892 70.6323 111.536 70.6323 111.152C70.6323 110.68 70.4923 110.324 70.2123 110.084C69.9323 109.836 69.5683 109.712 69.1203 109.712C68.7043 109.712 68.3363 109.784 68.0163 109.928C67.7043 110.072 67.3843 110.272 67.0563 110.528L66.4923 109.82C66.7163 109.628 66.9603 109.456 67.2243 109.304C67.4963 109.152 67.7883 109.032 68.1003 108.944C68.4203 108.856 68.7603 108.812 69.1203 108.812C69.6563 108.812 70.1163 108.904 70.5003 109.088C70.8843 109.272 71.1803 109.536 71.3883 109.88C71.6043 110.216 71.7123 110.62 71.7123 111.092C71.7123 111.428 71.6603 111.748 71.5563 112.052C71.4523 112.348 71.3043 112.64 71.1123 112.928C70.9203 113.216 70.6883 113.508 70.4163 113.804C70.1443 114.1 69.8443 114.408 69.5163 114.728L67.7283 116.492V116.54H72.0603V117.5ZM75.9875 112.244C76.5715 112.244 77.0795 112.344 77.5115 112.544C77.9435 112.744 78.2755 113.032 78.5075 113.408C78.7475 113.776 78.8675 114.228 78.8675 114.764C78.8675 115.356 78.7395 115.868 78.4835 116.3C78.2275 116.724 77.8595 117.052 77.3795 117.284C76.9075 117.508 76.3355 117.62 75.6635 117.62C75.2235 117.62 74.8075 117.58 74.4155 117.5C74.0315 117.42 73.7075 117.304 73.4435 117.152V116.156C73.7315 116.332 74.0795 116.472 74.4875 116.576C74.9035 116.672 75.2995 116.72 75.6755 116.72C76.0995 116.72 76.4675 116.656 76.7795 116.528C77.0995 116.392 77.3475 116.188 77.5235 115.916C77.6995 115.636 77.7875 115.288 77.7875 114.872C77.7875 114.312 77.6155 113.884 77.2715 113.588C76.9275 113.284 76.3835 113.132 75.6395 113.132C75.4155 113.132 75.1595 113.152 74.8715 113.192C74.5835 113.232 74.3515 113.272 74.1755 113.312L73.6475 112.976L73.9715 108.932H78.2675V109.892H74.8715L74.6675 112.376C74.8035 112.352 74.9875 112.324 75.2195 112.292C75.4515 112.26 75.7075 112.244 75.9875 112.244ZM81.6187 113.144C81.6187 113.272 81.6107 113.44 81.5947 113.648C81.5867 113.856 81.5787 114.036 81.5707 114.188H81.6187C81.6667 114.124 81.7387 114.032 81.8347 113.912C81.9307 113.792 82.0267 113.672 82.1227 113.552C82.2267 113.424 82.3147 113.32 82.3867 113.24L84.4387 111.068H85.6747L83.0707 113.816L85.8547 117.5H84.5827L82.3507 114.5L81.6187 115.136V117.5H80.5747V108.38H81.6187V113.144ZM89.2648 110.948C89.6888 110.948 90.0688 111.028 90.4048 111.188C90.7488 111.348 91.0408 111.592 91.2808 111.92H91.3408L91.4848 111.068H92.3248V117.608C92.3248 118.216 92.2208 118.724 92.0128 119.132C91.8048 119.548 91.4888 119.86 91.0648 120.068C90.6408 120.276 90.1008 120.38 89.4448 120.38C88.9808 120.38 88.5528 120.344 88.1608 120.272C87.7768 120.208 87.4328 120.108 87.1288 119.972V119C87.3368 119.104 87.5648 119.192 87.8128 119.264C88.0608 119.344 88.3288 119.404 88.6168 119.444C88.9048 119.484 89.2008 119.504 89.5048 119.504C90.0568 119.504 90.4888 119.34 90.8008 119.012C91.1208 118.692 91.2808 118.252 91.2808 117.692V117.44C91.2808 117.344 91.2848 117.208 91.2928 117.032C91.3008 116.848 91.3088 116.72 91.3168 116.648H91.2688C91.0448 116.976 90.7648 117.22 90.4288 117.38C90.1008 117.54 89.7168 117.62 89.2768 117.62C88.4448 117.62 87.7928 117.328 87.3208 116.744C86.8568 116.16 86.6248 115.344 86.6248 114.296C86.6248 113.608 86.7288 113.016 86.9368 112.52C87.1528 112.016 87.4568 111.628 87.8488 111.356C88.2408 111.084 88.7128 110.948 89.2648 110.948ZM89.4088 111.836C89.0488 111.836 88.7408 111.932 88.4848 112.124C88.2368 112.316 88.0448 112.596 87.9088 112.964C87.7808 113.332 87.7168 113.78 87.7168 114.308C87.7168 115.1 87.8608 115.708 88.1488 116.132C88.4448 116.548 88.8728 116.756 89.4328 116.756C89.7608 116.756 90.0408 116.716 90.2728 116.636C90.5048 116.548 90.6968 116.416 90.8488 116.24C91.0008 116.056 91.1128 115.824 91.1848 115.544C91.2568 115.264 91.2928 114.932 91.2928 114.548V114.296C91.2928 113.712 91.2248 113.24 91.0888 112.88C90.9608 112.52 90.7568 112.256 90.4768 112.088C90.1968 111.92 89.8408 111.836 89.4088 111.836Z" fill="#808B9A"/>
</g>
<defs>
<filter id="filter0_dd_2613_83" x="0" y="0" width="135.334" height="163" filterUnits="userSpaceOnUse" color-interpolation-filters="sRGB">
<feFlood flood-opacity="0" result="BackgroundImageFix"/>
<feColorMatrix in="SourceAlpha" type="matrix" values="0 0 0 0 0 0 0 0 0 0 0 0 0 0 0 0 0 0 127 0" result="hardAlpha"/>
<feMorphology radius="2" operator="erode" in="SourceAlpha" result="effect1_dropShadow_2613_83"/>
<feOffset dy="4"/>
<feGaussianBlur stdDeviation="10"/>
<feColorMatrix type="matrix" values="0 0 0 0 0.196078 0 0 0 0 0.196078 0 0 0 0 0.278431 0 0 0 0.02 0"/>
<feBlend mode="normal" in2="BackgroundImageFix" result="effect1_dropShadow_2613_83"/>
<feColorMatrix in="SourceAlpha" type="matrix" values="0 0 0 0 0 0 0 0 0 0 0 0 0 0 0 0 0 0 127 0" result="hardAlpha"/>
<feOffset/>
<feGaussianBlur stdDeviation="2.5"/>
<feColorMatrix type="matrix" values="0 0 0 0 0.0470588 0 0 0 0 0.101961 0 0 0 0 0.294118 0 0 0 0.05 0"/>
<feBlend mode="normal" in2="effect1_dropShadow_2613_83" result="effect2_dropShadow_2613_83"/>
<feBlend mode="normal" in="SourceGraphic" in2="effect2_dropShadow_2613_83" result="shape"/>
</filter>
</defs>
</svg>
