<svg width="38" height="38" viewBox="0 0 38 38" fill="none" xmlns="http://www.w3.org/2000/svg">
<rect x="0.5" y="0.5" width="37" height="37" rx="13.5" stroke="#1B85F3"/>
<path d="M14.834 14.8334H14.0007C13.5586 14.8334 13.1347 15.009 12.8221 15.3216C12.5096 15.6341 12.334 16.0581 12.334 16.5001V24.0001C12.334 24.4421 12.5096 24.866 12.8221 25.1786C13.1347 25.4912 13.5586 25.6668 14.0007 25.6668H21.5007C21.9427 25.6668 22.3666 25.4912 22.6792 25.1786C22.9917 24.866 23.1673 24.4421 23.1673 24.0001V23.1668M22.334 13.1668L24.834 15.6668M25.9882 14.4876C26.3164 14.1594 26.5007 13.7142 26.5007 13.2501C26.5007 12.7859 26.3164 12.3408 25.9882 12.0126C25.6599 11.6844 25.2148 11.5 24.7507 11.5C24.2865 11.5 23.8414 11.6844 23.5132 12.0126L16.5007 19.0001V21.5001H19.0007L25.9882 14.4876Z" stroke="#1B85F3" stroke-width="1.5" stroke-linecap="round" stroke-linejoin="round"/>
</svg>
